<?xml version="1.0" encoding="UTF-8" standalone="no"?>
<!DOCTYPE svg PUBLIC "-//W3C//DTD SVG 1.1//EN" "http://www.w3.org/Graphics/SVG/1.1/DTD/svg11.dtd">
<svg width="100%" height="100%" viewBox="0 0 1080 1080" version="1.1" xmlns="http://www.w3.org/2000/svg" xmlns:xlink="http://www.w3.org/1999/xlink" xml:space="preserve" xmlns:serif="http://www.serif.com/" style="fill-rule:evenodd;clip-rule:evenodd;stroke-linecap:round;stroke-linejoin:round;stroke-miterlimit:1.5;">
    <path id="bowl" d="M128.066,500.188C130.505,498.968 128.931,482.918 141.71,489.307C152.959,494.931 144.583,524.589 150.122,534.981C163.675,560.407 142.894,600.665 155.723,626.321C160.84,636.555 161.706,649.393 166.753,659.486C169.266,664.512 175.807,669.672 178.626,675.709C184.124,687.485 209.211,675.907 216.702,683.398C225.64,692.335 224.192,707.828 224.192,720.172C224.192,720.562 223.941,724.401 224.192,724.526C232.761,728.81 267.639,722.858 282.986,724.433C293.715,725.534 307.594,729.169 318.457,732.065C347.757,739.874 433.236,731.937 469.117,734.808C475.759,735.339 566.257,727.774 566.912,727.119C568.868,725.163 566.299,719.775 567.783,717.549C572.406,710.613 577.409,698.732 580.84,691.869C581.389,690.771 653.566,688.569 665.741,661.518C681.158,627.264 671.226,528.708 679.724,515.962C689.247,501.678 690.971,492.828 700.906,482.894C701.054,482.746 702.845,480.915 703.518,481.587C706.139,484.208 705.174,489.489 708.887,490.726C711.822,491.705 714.255,497.136 714.255,501.607" style="fill:none;stroke:black;stroke-width:12px;"/>
    <path d="M166.777,594.605C188.406,594.604 209.376,616.295 209.376,639.739" style="fill:none;stroke:black;stroke-width:12px;"/>
    <path d="M168.08,562.175C220.049,562.171 269.721,640.78 269.721,688.858" style="fill:none;stroke:black;stroke-width:12px;"/>
    <path d="M165.734,520.605C201.499,520.606 295.009,583.175 315.127,616.1C320.469,624.842 319.316,640.791 319.316,651.123" style="fill:none;stroke:black;stroke-width:12px;"/>
    <path d="M193.039,506.155C211.587,506.155 236.596,515.81 253.781,522.307C330.757,551.412 337.307,585.039 349.422,658.455C351.142,668.883 358.159,682.448 358.159,690.76" style="fill:none;stroke:black;stroke-width:12px;"/>
    <path d="M566.363,672.307C566.363,668.246 571.578,664.34 574.14,661.778C596.152,639.766 617.085,638.279 648.372,638.279" style="fill:none;stroke:black;stroke-width:12px;"/>
    <path d="M470.862,705.784C503.649,649.633 548.164,637.96 604.075,604.338C626.633,590.774 642.623,580.923 666.575,580.923" style="fill:none;stroke:black;stroke-width:12px;"/>
    <path d="M417.202,685.043C421.719,671.491 421.387,655.556 430.067,643.605C463.094,598.132 606.303,563.186 663.31,563.186" style="fill:none;stroke:black;stroke-width:12px;"/>
    <path d="M366.317,637.901C366.317,600.235 424.144,573.895 452.368,568.934C499.029,560.732 541.638,535.371 585.76,520.195C598.405,515.846 612.355,516.606 624.479,511.237C645.075,502.117 659.384,526.631 676.186,526.631" style="fill:none;stroke:black;stroke-width:12px;"/>
    <path d="M314.603,532.375C325.938,532.375 396.479,536.897 396.479,559.358" style="fill:none;stroke:black;stroke-width:12px;"/>
    <path d="M301.154,512.311C341.706,489.718 414.299,504.944 453.99,523.476C459.287,525.949 465.69,553.05 471.962,553.05" style="fill:none;stroke:black;stroke-width:12px;"/>
    <path d="M242.108,501.432C242.108,495.814 272.35,433.029 278.347,430.967C305.188,421.734 355.953,441.962 355.953,472.21" style="fill:none;stroke:black;stroke-width:12px;"/>
    <path d="M289.143,464.552C308.189,445.506 350.667,433.991 374.868,426.174C400.947,417.751 426.109,402.396 451.374,392.191C496.08,374.134 535.71,343.946 578.28,324.069C631.125,299.394 681.532,275.222 732.791,250.163C765.918,233.969 787.524,222.653 823.821,210.168C827.535,208.891 860.034,200.234 860.034,196.752" style="fill:none;stroke:black;stroke-width:12px;"/>
    <path d="M305.227,470.528C342.193,458.206 380.615,444.848 418.852,436.281C448.995,429.527 475.518,402.24 506.244,396.083C542.373,388.843 581.886,369.742 615.859,354.924C627.169,349.991 640.368,349.87 651.893,346.356C701.327,331.281 753.042,323.225 802.093,308.267C819.744,302.884 910.488,270.73 925.952,270.73" style="fill:none;stroke:black;stroke-width:12px;"/>
</svg>
